<svg xmlns="http://www.w3.org/2000/svg" fill="none" viewBox="0 0 20 20" class="header_logo" aria-label="Nominal logo">
<!-- <path fill="#18181B" d="M88.582 16.78a.39.39 0 0 1-.387-.387V3.24c0-.213.174-.387.387-.387h2.031c.213 0 .387.174.387.387v13.154a.39.39 0 0 1-.387.387zM81.38 17.148c-2.146 0-3.559-1.393-3.559-3.366 0-1.915 1.258-3.211 3.676-3.211h2.611c.136 0 .194-.058.194-.194v-.27c0-.794-.523-1.335-1.664-1.335-.948 0-1.586.31-1.702.832-.078.27-.232.328-.484.328h-1.896c-.251 0-.406-.135-.386-.386.115-1.722 1.837-3.096 4.41-3.096 2.786 0 4.372 1.22 4.372 3.753v6.19a.39.39 0 0 1-.387.387h-1.393c-.56 0-.425-.6-1.006-.6-.522 0-1.005.968-2.785.968m-.696-3.501c0 .773.561 1.18 1.606 1.18 1.122 0 2.012-.542 2.012-1.548v-.387c0-.155-.058-.213-.194-.213h-2.36c-.677 0-1.064.368-1.064.968M68.186 16.78a.39.39 0 0 1-.387-.387V7.205c0-.213.174-.387.387-.387h1.412c.58 0 .484.56.929.56.542 0 .851-.928 2.65-.928 2.341 0 3.888 1.529 3.888 4.14v5.804a.39.39 0 0 1-.386.387h-2.012a.39.39 0 0 1-.387-.387v-5.262c0-1.18-.735-1.896-1.838-1.896-1.122 0-1.838.716-1.838 1.896v5.262a.39.39 0 0 1-.386.387zM63.852 16.78a.39.39 0 0 1-.387-.387V7.205c0-.213.174-.387.387-.387h2.03c.233 0 .388.174.388.387v9.188a.376.376 0 0 1-.387.387zM63.349 5.31v-2.05c0-.155.135-.31.31-.31h2.456c.174 0 .31.155.31.31v2.05c0 .174-.136.31-.31.31h-2.457a.306.306 0 0 1-.31-.31M47.543 16.78a.39.39 0 0 1-.387-.387V7.205c0-.213.174-.387.387-.387h1.412c.58 0 .484.56.929.56.503 0 .85-.928 2.534-.928 1.954 0 2.283 1.2 2.902 1.2.6 0 1.025-1.2 3.037-1.2 2.224 0 3.714 1.529 3.714 4.082v5.861a.39.39 0 0 1-.387.387h-2.031a.39.39 0 0 1-.387-.387v-5.397c0-1.064-.638-1.76-1.625-1.76s-1.625.696-1.625 1.76v5.397a.39.39 0 0 1-.387.387h-2.031a.39.39 0 0 1-.387-.387v-5.397c0-1.064-.638-1.76-1.625-1.76-.986 0-1.625.696-1.625 1.76v5.397a.39.39 0 0 1-.387.387zM41.118 17.148c-1.702 0-3.056-.58-3.966-1.606-.793-.928-1.257-2.205-1.257-3.752 0-1.548.464-2.825 1.257-3.734.91-1.025 2.264-1.606 3.966-1.606 1.722 0 3.076.58 3.985 1.606.793.91 1.238 2.186 1.238 3.734 0 1.547-.445 2.824-1.238 3.752-.91 1.026-2.263 1.606-3.985 1.606m-2.36-5.358c0 .735.193 1.334.542 1.78.387.502 1.006.773 1.818.773s1.45-.27 1.838-.774c.348-.445.541-1.044.541-1.78 0-.715-.193-1.334-.541-1.78-.387-.483-1.026-.773-1.838-.773s-1.431.29-1.818.774c-.349.445-.542 1.064-.542 1.78M23.617 16.78a.39.39 0 0 1-.387-.387V3.627c0-.213.174-.387.387-.387h2.902c.348 0 .484.174.639.445l4.468 7.99c.077.154.29.116.29-.059V3.626c0-.213.174-.387.387-.387h2.186c.213 0 .387.174.387.387v12.768a.39.39 0 0 1-.387.386h-2.902c-.348 0-.483-.174-.638-.445L26.48 8.346c-.077-.155-.29-.116-.29.058v7.99a.39.39 0 0 1-.387.386z"></path> -->
<path fill="#ffffff" fill-rule="evenodd" d="M10.173 1.914c-.04.034-.083.077-.17.165L3.117 8.963c-.087.088-.131.131-.165.171a1.33 1.33 0 0 0 0 1.732c.034.04.078.084.165.171l6.884 6.884c.088.088.132.132.171.166a1.33 1.33 0 0 0 1.732 0c.04-.034.084-.078.171-.166l6.885-6.884c.087-.087.131-.131.165-.17a1.334 1.334 0 0 0 0-1.733c-.034-.04-.078-.083-.165-.171l-6.885-6.884a3 3 0 0 0-.17-.165 1.33 1.33 0 0 0-1.733 0m7.125 8.01c-.012-.023-.034-.045-.078-.089l-5.052-5.052c-.048-.048-.072-.071-.09-.078a.083.083 0 0 0-.1.042c-.01.018-.01.051-.01.118v10.27c0 .067 0 .1.01.118a.083.083 0 0 0 .1.042c.018-.006.042-.03.09-.077l5.052-5.053a.4.4 0 0 0 .078-.09.17.17 0 0 0 0-.15" clip-rule="evenodd"></path>
</svg>
